<?xml version="1.0" encoding="utf-8"?>
<!-- Generator: Adobe Illustrator 19.1.0, SVG Export Plug-In . SVG Version: 6.00 Build 0)  -->
<svg version="1.1" id="Layer_1" xmlns="http://www.w3.org/2000/svg" xmlns:xlink="http://www.w3.org/1999/xlink" x="0px" y="0px"
	 viewBox="0 0 31.8 63.3" style="enable-background:new 0 0 31.8 63.3;" xml:space="preserve">
<style type="text/css">
	.st0{fill:none;}
	.st1{fill:none;stroke:#FFFFFF;stroke-width:2.5;stroke-miterlimit:10;}
</style>
<g>
	<path d="M31.3,20.5L31.3,20.5L31.3,7.7c0-0.7-0.6-1.2-1.2-1.2c0,0,0,0,0,0c-0.7,0-1.2,0.6-1.2,1.3l0,10.4l-4.4,2.7v-8.1
		c0-0.7-0.6-1.2-1.2-1.2s-1.2,0.6-1.2,1.2v9.6c-2.1,1.4-3.6,2.9-4.7,4.2V1.5c0-0.7-0.6-1.2-1.2-1.2s-1.2,0.6-1.2,1.2v25.3
		c-1.1-1.3-2.6-2.8-4.7-4.2v-9.8c0-0.7-0.6-1.2-1.2-1.2s-1.2,0.6-1.2,1.2v8.3l-4.7-2.8l0-10.7c0-0.7-0.6-1.2-1.2-1.2h0
		C1,6.4,0.4,7,0.4,7.7l0,9.2l0,0l0,3.2h0v4.7l0,6.3c0,0,0,0.2,0,0.4V46c0,3.1,1.1,6.2,3.1,8.4c0.2,0.2,0.4,0.4,0.6,0.6
		c2.2,2.2,10.9,7,11.8,7.5l0,0l0,0c1-0.5,9.8-5.2,12.1-7.4c0.2-0.2,0.4-0.4,0.6-0.6c1.8-2.1,2.8-5.1,2.8-8.5L31.3,20.5z M2.9,24.7
		l0-2c0,0,0-0.1,0-0.1l0-1.4l4.5,2.7l0,0c6.5,3.8,7.2,7.5,7.3,8.7c0,0.3,0,0.5,0,0.6v4.3v4.7l0,0.6c-1.5-0.7-4-2.1-7.2-4.1
		c-4-2.5-4.6-6.2-4.7-7.3V24.7z M5.8,53.3c-0.2-0.2-0.3-0.3-0.5-0.5c-1.6-1.8-2.5-4.3-2.5-6.8v-8.3c0.8,1.1,1.9,2.1,3.3,3
		c4.3,2.8,7.2,4.2,8.6,4.8v1.1l0,0l0,12.5C11.6,57.3,7.1,54.5,5.8,53.3z M17.2,42.6v-5.1v-4.3c0-0.1,0-0.3,0-0.5v-0.1
		c0.1-1.2,0.9-4.9,7-8.6l4.3-2.7l0,9.8c0,0.2-0.1,4.7-4.5,7.6c-3.1,2-5.4,3.3-6.8,4.1L17.2,42.6z M26.7,52.9
		c-0.1,0.2-0.3,0.3-0.5,0.5c-1.3,1.3-5.7,3.8-8.9,5.6l0-13.5c1.3-0.6,4-2.1,8.2-4.8c1.5-1,2.6-2.2,3.5-3.4l0,8.7
		C28.9,48.8,28.1,51.3,26.7,52.9z"/>
</g>
</svg>
