<?xml version="1.0" encoding="utf-8"?>
<!-- Generator: Adobe Illustrator 18.1.0, SVG Export Plug-In . SVG Version: 6.00 Build 0)  -->
<svg version="1.1" xmlns="http://www.w3.org/2000/svg" xmlns:xlink="http://www.w3.org/1999/xlink" x="0px" y="0px"
	 viewBox="240 0 800 800" enable-background="new 240 0 800 800" xml:space="preserve">
<g id="Layer_1" display="none">
	<path display="inline" d="M1029.5,212.4c0-78.3-64.8-143.1-143.1-143.1c-72.3,0-134.1,55.7-141.6,125c-4.5-1.5-9-1.5-15.1-3
		c-21.1-30.1-52.7-52.7-87.4-64.8C634.7,58.8,580.5,9,512.7,9c-70.8,0-129.6,55.7-129.6,126.6c0,34.7,13.6,67.8,39.2,91.9
		c-7.5,19.6-12.1,42.2-12.1,64.8c0,10.5,1.5,21.1,3,31.6c-84.4,12.1-162.7,90.4-162.7,183.8c0,100.9,85.9,183.8,186.8,183.8
		c58.8,0,114.5-28.6,149.2-76.8c1.5,1.5,3,1.5,4.5,3c-9,16.6-15.1,36.2-15.1,57.3c0,64.8,52.7,116,116,116c64.8,0,116-52.7,116-116
		c0-12.1-1.5-22.6-4.5-33.1c6-3,12.1-4.5,18.1-7.5c13.6,28.6,42.2,48.2,75.3,48.2c46.7,0,84.4-36.2,84.4-82.9
		c0-34.7-22.6-64.8-52.7-76.8c13.6-30.1,21.1-61.8,21.1-96.4c0-27.1-4.5-54.2-15.1-79.8C988.8,326.9,1029.5,274.2,1029.5,212.4z
		 M420.8,138.6c0-51.2,40.7-90.4,91.9-90.4c43.7,0,79.8,25.6,90.4,70.8c-6,0-10.5-1.5-16.6-1.5c-60.3,0-113,30.1-144.6,76.8
		C428.3,179.3,420.8,159.7,420.8,138.6z M434.4,653.9c-79.8,0-147.6-64.8-147.6-146.1c0-78.3,63.3-141.6,135.6-144.6
		c13.6,31.6,34.7,57.3,63.3,76.8c7.5,58.8,31.6,111.5,67.8,149.2C529.3,629.8,484.1,653.9,434.4,653.9z M690.5,753.3
		c-43.7,0-78.3-34.7-78.3-78.3s34.7-78.3,78.3-78.3c43.7,0,78.3,34.7,78.3,78.3S734.2,753.3,690.5,753.3z M942.1,598.1
		c0,25.6-21.1,45.2-46.7,45.2c-19.6,0-36.2-10.5-43.7-30.1c22.6-16.6,40.7-36.2,57.3-58.8C931.5,558.9,942.1,577,942.1,598.1z
		 M910.4,426.4c0,81.4-51.2,153.7-125,180.8c-21.1-30.1-55.7-48.2-94.9-48.2c-30.1,0-57.3,12.1-78.3,30.1
		c-51.2-34.7-85.9-97.9-88.9-170.2l0,0c-46.7-24.1-76.8-70.8-76.8-123.5c0-76.8,61.8-138.6,138.6-138.6c46.7,0,90.4,24.1,116,63.3v9
		c24.1,0,33.1,1.5,43.7,4.5c10.5,69.3,69.3,122,141.6,122c3,0,6,0,10.5,0C905.9,378.2,910.4,400.8,910.4,426.4z M886.3,317.9
		c-58.8,0-105.5-46.7-105.5-105.5S827.6,107,886.3,107s105.5,46.7,105.5,105.5S943.6,317.9,886.3,317.9z"/>
</g>
<g id="Layer_2" display="none">
	<g display="inline">
		<circle cx="640" cy="400" r="291.8"/>
		<path d="M640,10.2c-215.3,0-389.8,174.5-389.8,389.8S424.7,789.8,640,789.8c215.3,0,389.8-174.5,389.8-389.8S855.3,10.2,640,10.2z
			 M888.1,648.1c-32.2,32.2-69.8,57.5-111.5,75.2c-43.2,18.3-89.2,27.6-136.5,27.6s-93.3-9.3-136.5-27.6
			c-41.8-17.7-79.3-43-111.5-75.2c-32.2-32.2-57.5-69.8-75.2-111.5c-18.3-43.2-27.6-89.2-27.6-136.5s9.3-93.3,27.6-136.5
			c17.7-41.8,43-79.3,75.2-111.5c32.2-32.2,69.8-57.5,111.5-75.2c43.2-18.3,89.2-27.6,136.5-27.6s93.3,9.3,136.5,27.6
			c41.8,17.7,79.3,43,111.5,75.2s57.5,69.8,75.2,111.5c18.3,43.2,27.6,89.2,27.6,136.5s-9.3,93.3-27.6,136.5
			C945.6,578.3,920.3,615.8,888.1,648.1z"/>
	</g>
</g>
<g id="Layer_6" display="none">
	<g display="inline">
		<path d="M640,15.8c-8.8,0-16,7.2-16,16v120c0,8.8,7.2,16,16,16c8.8,0,16-7.2,16-16v-120C656,22.9,648.8,15.8,640,15.8z"/>
		<path d="M640,632.2c-8.8,0-16,7.2-16,16v120c0,8.8,7.2,16,16,16c8.8,0,16-7.2,16-16v-120C656,639.4,648.8,632.2,640,632.2z"/>
		<path d="M390.9,128.3c-6.2-6.2-16.4-6.2-22.6,0c-6.2,6.2-6.2,16.4,0,22.6l84.8,84.8c3.1,3.1,7.2,4.7,11.3,4.7s8.2-1.6,11.3-4.7
			c6.2-6.2,6.2-16.4,0-22.6L390.9,128.3z"/>
		<path d="M826.8,564.2c-6.2-6.2-16.4-6.2-22.6,0c-6.2,6.2-6.2,16.4,0,22.6l84.8,84.8c3.1,3.1,7.2,4.7,11.3,4.7s8.2-1.6,11.3-4.7
			c6.2-6.2,6.2-16.4,0-22.6L826.8,564.2z"/>
		<path d="M407.8,400c0-8.8-7.2-16-16-16h-120c-8.8,0-16,7.2-16,16c0,8.8,7.2,16,16,16h120C400.6,416,407.8,408.8,407.8,400z"/>
		<path d="M1008.2,384h-120c-8.8,0-16,7.2-16,16c0,8.8,7.2,16,16,16h120c8.8,0,16-7.2,16-16C1024.2,391.2,1017.1,384,1008.2,384z"/>
		<path d="M453.2,564.2l-84.8,84.8c-6.2,6.2-6.2,16.4,0,22.6c3.1,3.1,7.2,4.7,11.3,4.7s8.2-1.6,11.3-4.7l84.8-84.8
			c6.2-6.2,6.2-16.4,0-22.6C469.5,558,459.4,558,453.2,564.2z"/>
		<path d="M815.5,240.5c4.1,0,8.2-1.6,11.3-4.7l84.8-84.8c6.2-6.2,6.2-16.4,0-22.6c-6.2-6.2-16.4-6.2-22.6,0l-84.8,84.8
			c-6.2,6.2-6.2,16.4,0,22.6C807.3,238.9,811.4,240.5,815.5,240.5z"/>
	</g>
</g>
<g id="Layer_7">
	<path d="M929.6,347.6L807.7,225.7c-10-10-26.7-10-36.7,0c-8.4,7.4-15.4,15.1-20.9,23.1l-183-183c-24.4-24.4-64.1-24.4-88.5,0
		l-3.7,3.7c-11.2,11.2-17.2,25.6-18.2,40.3c-14.7,0.9-29.1,7-40.3,18.2l-3.7,3.7c-11.2,11.2-17.2,25.6-18.2,40.3
		c-14.7,0.9-29.1,7-40.3,18.2l-3.7,3.7c-11.2,11.2-17.2,25.6-18.2,40.3c-14.7,0.9-29.1,7-40.3,18.2l-3.7,3.7
		c-24.4,24.4-24.4,64.1,0,88.5l342,342l0.2,0.2l0.3-0.1c11.7,11.7,31.6,26.6,41.6,33.3c5,3.3,8.4,5,13.4,8.4
		c20,11.7,155.3,68.5,267.2-48.4c98.5-101.9,48.4-238.8,5-300.6C958.6,378.5,929.8,347.4,929.6,347.6z M442.7,161.9l3.7-3.7
		c7.8-7.8,20.5-7.8,28.3,0L638.6,322l-32,32L442.7,190.2C434.9,182.4,434.9,169.7,442.7,161.9z M380.6,224l3.7-3.7
		c7.8-7.8,20.5-7.8,28.3,0l163.8,163.8l-32,32L380.6,252.3C372.8,244.5,372.8,231.8,380.6,224z M922.9,399.4
		c10,15,98.5,152,1.7,252.2c-91.9,93.5-195.4,51.8-225.5,38.4c-3.3-1.7-5-3.3-6.7-5c-3.7-2.5-7.4-4.9-11.7-8l-4.3-4.3c0,0,0,0,0,0
		l-29.4-29.4c0,0,0,0,0,0L318.4,314.5c-7.8-7.8-7.8-20.5,0-28.3l3.7-3.7c7.8-7.8,20.5-7.8,28.3,0l163.8,163.8l0,0
		c-8.1,8.1-8.1,21.4,0,29.5c8.1,8.1,21.4,8.1,29.5,0l154.4-154.4c8.1-8.1,8.1-21.4,0-29.5c-8.1-8.1-21.4-8.2-29.5,0L504.9,128
		c-7.8-7.8-7.8-20.5,0-28.3l3.7-3.7c7.8-7.8,20.5-7.8,28.3,0l196.3,196.3c-0.5,3.9-0.7,7.9-0.7,11.9c0,38.4,26.7,63.5,33.4,70.1
		l30.3,39.8c-16.3,17.1-37.3,41.7-48.4,70.1c-17.2,43.8-7,86.3,29.5,122.7c8.1,8.1,21.4,8.1,29.5,0s8.1-21.4,0-29.5
		c-24.8-24.8-31.2-49.6-20.1-78c7.9-20.2,23.8-39.5,37.2-53.8l28.1-28.3l-57.6-73.1l0-1.7c0,0-18.4-16.7-20-40.1
		c0-13.4,5-25.1,15-36.7L922.9,399.4z"/>
</g>
<g id="Layer_5" display="none">
	<polygon display="inline" points="275.4,762.1 1004.6,396.7 275.4,37.9 	"/>
</g>
<g id="Layer_3" display="none">
	<rect x="332.3" y="92.3" display="inline" width="615.3" height="615.3"/>
</g>
<g id="Layer_4" display="none">
	<path display="inline" d="M805.7,47.1v43.6c30.2,16.2,57.8,36.7,82.3,61.2c32.2,32.2,57.5,69.8,75.2,111.5
		c18.3,43.2,27.6,89.2,27.6,136.5s-9.3,93.3-27.6,136.5c-17.7,41.8-43,79.3-75.2,111.5s-69.8,57.5-111.5,75.2
		c-43.2,18.3-89.2,27.6-136.5,27.6s-93.3-9.3-136.5-27.6c-41.8-17.7-79.3-43-111.5-75.2c-32.2-32.2-57.5-69.8-75.2-111.5
		c-18.3-43.2-27.6-89.2-27.6-136.5s9.3-93.3,27.6-136.5c17.7-41.8,43-79.3,75.2-111.5c24.5-24.5,52.1-45,82.3-61.2V47.1
		C341.8,109.4,250.2,244,250.2,400c0,215.3,174.5,389.8,389.8,389.8c215.3,0,389.8-174.5,389.8-389.8
		C1029.8,244,938.2,109.4,805.7,47.1z"/>
	<polygon display="inline" points="757.7,367 757.7,38.1 719.7,38.1 719.7,367 719.7,405 750.2,405 640,530.5 529.8,405 560.3,405 
		560.3,367 560.3,38.1 522.3,38.1 522.3,367 445.9,367 640,588.1 834.1,367 	"/>
</g>
</svg>
