<?xml version="1.0" encoding="utf-8"?>
<!-- Generator: Adobe Illustrator 18.1.1, SVG Export Plug-In . SVG Version: 6.00 Build 0)  -->
<svg version="1.1" id="Layer_1" xmlns="http://www.w3.org/2000/svg" xmlns:xlink="http://www.w3.org/1999/xlink" x="0px" y="0px"
	 viewBox="117 55 345 439.9" enable-background="new 117 55 345 439.9" xml:space="preserve">
<g>
	<path d="M328.6,223.4c11.8,0,21.6-6.5,21.6-14.6s-9.6-14.6-21.6-14.6s-21.6,6.5-21.6,14.6S316.6,223.4,328.6,223.4z M328.6,196.3
		c10.6,0,19.2,5.5,19.2,12.2s-8.6,12.2-19.2,12.2s-19.2-5.5-19.2-12.2S318,196.3,328.6,196.3z"/>
	<path d="M328.6,218.6c10.1,0,16.8-5,16.8-9.8c0-4.8-6.7-9.8-16.8-9.8s-16.8,5-16.8,9.8C311.8,213.6,318.5,218.6,328.6,218.6z
		 M328.6,201.1c8.9,0,14.4,4.3,14.4,7.4s-5.5,7.4-14.4,7.4s-14.4-4.3-14.4-7.4S319.7,201.1,328.6,201.1z"/>
	<path d="M422.4,186.2c-79-36.7-154.6-28.1-200.4-15.8l-3.8-11.3l14.2-13.9c1.4,0.7,3.1,1.2,5,1.2c6,0,10.8-4.8,10.8-10.8
		s-4.8-10.8-10.8-10.8s-10.8,4.8-10.8,10.8c0,2.4,0.7,4.6,2.2,6.5l-12.2,12l-3.4-9.8c-1-2.4-1.2-4.8-1.2-7.4l-0.2-51.6h0.2l-0.2-0.5
		v-8.9c0-1.7-0.7-3.4-2.2-4.3c-1.4-1-3.4-1.2-5-0.7l-58.8,24.7c-1.9,0.7-3.1,2.2-3.4,4.1s0.5,3.8,1.9,4.8l11.3,9.6l0.2,0.5l0.2-0.2
		l34.8,29.3c3.1,2.4,5.3,5.8,6.7,9.6l7.4,22.3c-11,3.6-19.2,7-23.8,9.1H161c-5.8,0-10.6,4.8-10.6,10.6V481h3.4v5.8
		c0,2.6,2.2,4.6,4.6,4.6h0.7v3.4h13.4v-3.4h0.7c2.4,0,4.6-2.2,4.6-4.6V481h3.4v-89.8h76.1l12.5,15.6c3.4,4.1,5,9.4,5,14.6v18
		c0,11,6.2,20.6,15.4,25.2v2.4c0,4.6,3.6,8.2,8.2,8.2h-0.7v4.8h2.2v2.2h7.4V480h2.2v-4.8h-1c4.6,0,8.2-3.6,8.2-8.2v-2.4
		c9.1-4.8,15.1-14.2,15.1-25.2v-19c0-5,1.7-10.1,4.8-14.2l11.3-15.1H419v90h3.4v5.8c0,2.6,2.2,4.6,4.6,4.6h0.7v3.4h13.4v-3.4h0.7
		c2.4,0,4.6-2.2,4.6-4.6v-5.8h3.4V197c0-5.8-4.8-10.6-10.6-10.6h-15.6 M237.4,129.6c3.4,0,6,2.6,6,6s-2.6,6-6,6s-6-2.6-6-6
		C231.4,132.5,234,129.6,237.4,129.6z M439.7,191.3c3.1,0,5.8,2.6,5.8,5.8v60.5l-21.4-0.2v-66H439.7z M424.1,476.4V259.7l0,0l0,0
		l21.4,0.2v216.7h-21.4V476.4z M155.3,476.4V259.7l21.4,0.2v216.5H155.3z M295.2,221.8c6.2,9.6,19,15.6,33.1,15.6s26.9-6,33.1-15.6
		c2.6-4.1,3.8-8.2,3.8-12.7c0-1.9-0.2-3.6-0.7-5.3c21.1-3.4,39.6-7.9,54.2-13.9c0.2,0,0.5,0.2,0.5,0.2v69.6c0,4.6-0.5,9.4-1.2,13.9
		c-29.5,11-71.5,17.3-116.6,17.3c-46.1,0-89.3-6.7-118.8-18.2c-0.7-4.6-1.2-9.4-1.2-14.2v-67.9c27.4,10.8,67.2,17.3,109.9,18
		c0,0.2,0,0.5,0,0.7C291.4,213.6,292.8,217.9,295.2,221.8z M296.2,209.3c0-13,14.4-23.5,32.2-23.5c17.8,0,32.2,10.6,32.2,23.5
		c0,3.6-1,7-3.1,10.1c-5.3,8.2-16.8,13.4-29,13.4s-23.8-5.3-29-13.4C297.4,216,296.2,212.6,296.2,209.3z M181.4,287.3
		c3.4,9.6,8.2,18.7,14.6,26.9l46.1,57.8h-60.7V287.3z M183.4,275.5c29.8,11.3,72.5,17.8,118.3,17.8c44.6,0,86.6-6.2,116.2-17
		c-0.5,2.4-1.2,5-1.9,7.4c-29,11.3-71.3,17.8-116.4,17.8c-43.9,0-84.7-6-113.8-16.8C184.8,281.8,183.8,278.6,183.4,275.5z
		 M419.3,288.5V372h-56.9l44.2-59C412.1,305.5,416.4,297.1,419.3,288.5z M415.7,188.4c-14.2,5.5-31.9,10.1-51.8,13
		c-4.3-12-18.7-20.6-35.5-20.6c-19,0-34.8,11-36.7,25.4c-41.8-0.7-80.6-7-107.8-17.3C207.4,178.3,307.4,140.2,415.7,188.4z
		 M206.9,90.7l-48,20.2l-2.6-2.2l50.4-21.1L206.9,90.7z M147.1,100.6c0-0.2,0.2-0.2,0.5-0.5l58.8-24.7c0.2,0,0.2,0,0.5,0
		c0,0,0.2,0.2,0.2,0.5v8.9l-52.6,22.1l-7.2-6C147.1,100.8,147.1,100.6,147.1,100.6z M202.1,151.7c-1.4-4.6-4.3-8.6-8.2-11.8
		L161,112.6l45.8-19.2l0.2,43.4c0,3.1,0.5,6.2,1.4,9.1l8.9,25.9c-2.6,0.7-5.3,1.4-7.9,2.4L202.1,151.7z M161,189.6h15.6v67.9
		l-21.4-0.2v-61.9C155.3,192.2,157.9,189.6,161,189.6z M173.3,486.5h-14.4V481h14.4V486.5z M181.4,388.8v-14.4h62.6l11.5,14.4H181.4
		z M327.1,420.5v4.8c-6.7,2.2-14.9,3.4-23.3,3.4c-8.9,0-17.3-1.2-24-3.6v-3.4c0-3.4-0.7-7-1.9-10.1c7.2,2.6,16.3,4.3,25.9,4.3
		c9.1,0,17.8-1.4,24.7-3.8C327.6,414.7,327.1,417.6,327.1,420.5z M307.2,477.6H300v-2.4h7.2V477.6z M314.4,467
		c0,3.1-2.6,5.8-5.8,5.8h-10.1c-3.1,0-5.8-2.6-5.8-5.8v-1.2c3.4,1.4,7,2.2,10.8,2.2s7.4-0.7,10.8-2.2V467z M303.6,463.2
		c-13,0-23.8-10.6-23.8-23.8v-12c7,2.4,15.4,3.6,24,3.6c8.4,0,16.6-1.2,23.3-3.4v11.8C327.1,452.4,316.6,463.2,303.6,463.2z
		 M332.9,403.4c-1.2,1.7-2.4,3.6-3.1,5.5c-7,2.9-16.3,4.3-25.7,4.3c-10.6,0-20.2-1.9-27.4-5c-0.7-1.7-1.7-3.1-2.9-4.6L200.2,311
		c-5.8-7.2-10.1-15.1-13.2-23.5c29,10.3,69.6,16.1,112.8,16.1c44.6,0,86.4-6.2,115.4-17.3c-2.9,8.4-7,16.3-12.2,23.5l-59.3,79h-0.5
		v0.7L332.9,403.4z M349.7,388.8l10.8-14.4h58.8v14.4H349.7z M442.1,486.7h-14.4v-5.5h14.4V486.7z"/>
	<path d="M166.1,210c3.1,0,5.8-2.6,5.8-5.8s-2.6-5.8-5.8-5.8s-5.8,2.6-5.8,5.8C160.6,207.4,163,210,166.1,210z M166.1,200.9
		c1.7,0,3.4,1.4,3.4,3.4s-1.4,3.4-3.4,3.4c-1.7,0-3.4-1.4-3.4-3.4C163,202.3,164.4,200.9,166.1,200.9z"/>
	<path d="M166.1,228.2c3.1,0,5.8-2.6,5.8-5.8c0-3.1-2.6-5.8-5.8-5.8s-5.8,2.6-5.8,5.8C160.6,225.8,163,228.2,166.1,228.2z
		 M166.1,219.4c1.7,0,3.4,1.4,3.4,3.4s-1.4,3.4-3.4,3.4c-1.7,0-3.4-1.4-3.4-3.4C163,220.8,164.4,219.4,166.1,219.4z"/>
	<path d="M166.1,246.7c3.1,0,5.8-2.6,5.8-5.8c0-3.1-2.6-5.8-5.8-5.8s-5.8,2.6-5.8,5.8C160.3,244.1,163,246.7,166.1,246.7z
		 M166.1,237.6c1.7,0,3.4,1.4,3.4,3.4c0,1.9-1.4,3.4-3.4,3.4c-1.7,0-3.4-1.4-3.4-3.4C162.7,239,164.4,237.6,166.1,237.6z"/>
	<path d="M434.9,211.2c3.1,0,5.5-2.4,5.5-5.5c0-3.1-2.4-5.5-5.5-5.5c-3.1,0-5.5,2.4-5.5,5.5C429.4,208.8,432,211.2,434.9,211.2z
		 M434.9,202.3c1.7,0,3.1,1.4,3.1,3.1c0,1.7-1.2,3.4-3.1,3.4c-1.7,0-3.1-1.4-3.1-3.1C431.8,204,433.2,202.3,434.9,202.3z"/>
	<path d="M434.9,229.4c3.1,0,5.5-2.4,5.5-5.5s-2.4-5.5-5.5-5.5c-3.1,0-5.5,2.4-5.5,5.5S432,229.4,434.9,229.4z M434.9,220.8
		c1.7,0,3.1,1.4,3.1,3.1s-1.4,3.1-3.1,3.1s-3.1-1.4-3.1-3.1S433.2,220.8,434.9,220.8z"/>
	<path d="M434.9,247.9c3.1,0,5.5-2.4,5.5-5.5s-2.4-5.5-5.5-5.5c-3.1,0-5.5,2.4-5.5,5.5S432,247.9,434.9,247.9z M434.9,239.3
		c1.7,0,3.1,1.4,3.1,3.1c0,1.7-1.4,3.1-3.1,3.1s-3.1-1.4-3.1-3.1C432,240.7,433.2,239.3,434.9,239.3z"/>
</g>
</svg>
