<?xml version="1.0" encoding="utf-8"?>
<!-- Generator: Adobe Illustrator 19.1.0, SVG Export Plug-In . SVG Version: 6.00 Build 0)  -->
<svg version="1.1" id="Layer_1" xmlns="http://www.w3.org/2000/svg" xmlns:xlink="http://www.w3.org/1999/xlink" x="0px" y="0px"
	 viewBox="0 0 250 250" style="enable-background:new 0 0 250 250;" xml:space="preserve">
<style type="text/css">
	.st0{fill:none;stroke:#000000;stroke-miterlimit:10;}
</style>
<g>
	<path d="M136.9,93.1c4.9,0,9-2.7,9-6.1s-4-6.1-9-6.1c-5,0-9,2.7-9,6.1S131.9,93.1,136.9,93.1z M136.9,81.8c4.4,0,8,2.3,8,5.1
		s-3.6,5.1-8,5.1s-8-2.3-8-5.1S132.5,81.8,136.9,81.8z"/>
	<path d="M136.9,91.1c4.2,0,7-2.1,7-4.1s-2.8-4.1-7-4.1s-7,2.1-7,4.1S132.7,91.1,136.9,91.1z M136.9,83.8c3.7,0,6,1.8,6,3.1
		s-2.3,3.1-6,3.1c-3.7,0-6-1.8-6-3.1S133.2,83.8,136.9,83.8z"/>
	<path d="M176,77.6c-32.9-15.3-64.4-11.7-83.5-6.6l-1.6-4.7l5.9-5.8c0.6,0.3,1.3,0.5,2.1,0.5c2.5,0,4.5-2,4.5-4.5s-2-4.5-4.5-4.5
		s-4.5,2-4.5,4.5c0,1,0.3,1.9,0.9,2.7l-5.1,5l-1.4-4.1c-0.4-1-0.5-2-0.5-3.1l-0.1-21.5l0.1,0l-0.1-0.2l0-3.7c0-0.7-0.3-1.4-0.9-1.8
		c-0.6-0.4-1.4-0.5-2.1-0.3L60.7,39.8c-0.8,0.3-1.3,0.9-1.4,1.7c-0.1,0.8,0.2,1.6,0.8,2l4.7,4l0.1,0.2l0.1-0.1l14.5,12.2
		c1.3,1,2.2,2.4,2.8,4l3.1,9.3c-4.6,1.5-8,2.9-9.9,3.8h-8.4c-2.4,0-4.4,2-4.4,4.4v119.1h1.4v2.4c0,1.1,0.9,1.9,1.9,1.9h0.3l0,1.4
		l5.6,0l0-1.4h0.3c1,0,1.9-0.9,1.9-1.9v-2.4h1.4V163h31.7l5.2,6.5c1.4,1.7,2.1,3.9,2.1,6.1v7.5c0,4.6,2.6,8.6,6.4,10.5v1
		c0,1.9,1.5,3.4,3.4,3.4H124v2h0.9l0,0.9l3.1,0l0-0.9h0.9v-2h-0.4c1.9,0,3.4-1.5,3.4-3.4v-1c3.8-2,6.3-5.9,6.3-10.5v-7.9
		c0-2.1,0.7-4.2,2-5.9l4.7-6.3h29.7l0,37.5h1.4v2.4c0,1.1,0.9,1.9,1.9,1.9h0.3l0,1.4l5.6,0l0-1.4h0.3c1,0,1.9-0.9,1.9-1.9v-2.4h1.4
		l0-118.4c0-2.4-2-4.4-4.4-4.4h-6.5 M98.9,54c1.4,0,2.5,1.1,2.5,2.5c0,1.4-1.1,2.5-2.5,2.5s-2.5-1.1-2.5-2.5
		C96.4,55.2,97.5,54,98.9,54z M183.2,79.7c1.3,0,2.4,1.1,2.4,2.4l0,25.2l-8.9-0.1V79.7H183.2z M176.7,198.5l0-90.3c0,0,0,0,0,0l0,0
		l8.9,0.1l0,90.3H176.7z M64.7,198.5v-90.3l8.9,0.1v90.2H64.7z M123,92.4c2.6,4,7.9,6.5,13.8,6.5c5.9,0,11.2-2.5,13.8-6.5
		c1.1-1.7,1.6-3.4,1.6-5.3c0-0.8-0.1-1.5-0.3-2.2c8.8-1.4,16.5-3.3,22.6-5.8c0.1,0,0.2,0.1,0.2,0.1l0,29c0,1.9-0.2,3.9-0.5,5.8
		c-12.3,4.6-29.8,7.2-48.6,7.2c-19.2,0-37.2-2.8-49.5-7.6c-0.3-1.9-0.5-3.9-0.5-5.9V79.4c11.4,4.5,28,7.2,45.8,7.5
		c0,0.1,0,0.2,0,0.3C121.4,89,122,90.8,123,92.4z M123.4,87.2c0-5.4,6-9.8,13.4-9.8s13.4,4.4,13.4,9.8c0,1.5-0.4,2.9-1.3,4.2
		c-2.2,3.4-7,5.6-12.1,5.6c-5.1,0-9.9-2.2-12.1-5.6C123.9,90,123.4,88.6,123.4,87.2z M75.6,119.7c1.4,4,3.4,7.8,6.1,11.2l19.2,24.1
		H75.6V119.7z M76.4,114.8c12.4,4.7,30.2,7.4,49.3,7.4c18.6,0,36.1-2.6,48.4-7.1c-0.2,1-0.5,2.1-0.8,3.1
		c-12.1,4.7-29.7,7.4-48.5,7.4c-18.3,0-35.3-2.5-47.4-7C77,117.4,76.6,116.1,76.4,114.8z M174.7,120.2l0,34.8H151l18.4-24.6
		C171.7,127.3,173.5,123.8,174.7,120.2z M173.2,78.5c-5.9,2.3-13.3,4.2-21.6,5.4c-1.8-5-7.8-8.6-14.8-8.6c-7.9,0-14.5,4.6-15.3,10.6
		c-17.4-0.3-33.6-2.9-44.9-7.2C86.4,74.3,128.1,58.4,173.2,78.5z M86.2,37.8l-20,8.4l-1.1-0.9l21-8.8L86.2,37.8z M61.3,41.9
		c0-0.1,0.1-0.1,0.2-0.2l24.5-10.3c0.1,0,0.1,0,0.2,0c0,0,0.1,0.1,0.1,0.2l0,3.7l-21.9,9.2l-3-2.5C61.3,42,61.3,41.9,61.3,41.9z
		 M84.2,63.2c-0.6-1.9-1.8-3.6-3.4-4.9L67.1,46.9l19.1-8L86.3,57c0,1.3,0.2,2.6,0.6,3.8l3.7,10.8c-1.1,0.3-2.2,0.6-3.3,1L84.2,63.2z
		 M67.1,79h6.5v28.3l-8.9-0.1V81.4C64.7,80.1,65.8,79,67.1,79z M72.2,202.7h-6v-2.3h6V202.7z M75.6,162v-6h26.1l4.8,6H75.6z
		 M136.3,175.2v2c-2.8,0.9-6.2,1.4-9.7,1.4c-3.7,0-7.2-0.5-10-1.5v-1.4c0-1.4-0.3-2.9-0.8-4.2c3,1.1,6.8,1.8,10.8,1.8
		c3.8,0,7.4-0.6,10.3-1.6C136.5,172.8,136.3,174,136.3,175.2z M128,199h-3v-1h3V199z M131,194.6c0,1.3-1.1,2.4-2.4,2.4h-4.2
		c-1.3,0-2.4-1.1-2.4-2.4v-0.5c1.4,0.6,2.9,0.9,4.5,0.9c1.6,0,3.1-0.3,4.5-0.9V194.6z M126.5,193c-5.4,0-9.9-4.4-9.9-9.9v-5
		c2.9,1,6.4,1.5,10,1.5c3.5,0,6.9-0.5,9.7-1.4v4.9C136.3,188.5,131.9,193,126.5,193z M138.7,168.1c-0.5,0.7-1,1.5-1.3,2.3
		c-2.9,1.2-6.8,1.8-10.7,1.8c-4.4,0-8.4-0.8-11.4-2.1c-0.3-0.7-0.7-1.3-1.2-1.9l-30.7-38.6c-2.4-3-4.2-6.3-5.5-9.8
		c12.1,4.3,29,6.7,47,6.7c18.6,0,36-2.6,48.1-7.2c-1.2,3.5-2.9,6.8-5.1,9.8L143.2,162H143v0.3L138.7,168.1z M145.7,162l4.5-6h24.5
		l0,6H145.7z M184.2,202.8h-6v-2.3h6V202.8z"/>
	<path d="M69.2,87.5c1.3,0,2.4-1.1,2.4-2.4c0-1.3-1.1-2.4-2.4-2.4c-1.3,0-2.4,1.1-2.4,2.4C66.9,86.4,67.9,87.5,69.2,87.5z
		 M69.2,83.7c0.7,0,1.4,0.6,1.4,1.4c0,0.8-0.6,1.4-1.4,1.4c-0.7,0-1.4-0.6-1.4-1.4C67.9,84.3,68.5,83.7,69.2,83.7z"/>
	<path d="M69.2,95.1c1.3,0,2.4-1.1,2.4-2.4c0-1.3-1.1-2.4-2.4-2.4c-1.3,0-2.4,1.1-2.4,2.4C66.9,94.1,67.9,95.1,69.2,95.1z
		 M69.2,91.4c0.7,0,1.4,0.6,1.4,1.4c0,0.8-0.6,1.4-1.4,1.4c-0.7,0-1.4-0.6-1.4-1.4C67.9,92,68.5,91.4,69.2,91.4z"/>
	<path d="M69.2,102.8c1.3,0,2.4-1.1,2.4-2.4S70.5,98,69.2,98c-1.3,0-2.4,1.1-2.4,2.4S67.9,102.8,69.2,102.8z M69.2,99
		c0.7,0,1.4,0.6,1.4,1.4s-0.6,1.4-1.4,1.4c-0.7,0-1.4-0.6-1.4-1.4S68.5,99,69.2,99z"/>
	<path d="M181.2,88c1.3,0,2.3-1,2.3-2.3s-1-2.3-2.3-2.3c-1.3,0-2.3,1-2.3,2.3S180,88,181.2,88z M181.2,84.3c0.7,0,1.3,0.6,1.3,1.3
		S182,87,181.2,87c-0.7,0-1.3-0.6-1.3-1.3S180.5,84.3,181.2,84.3z"/>
	<path d="M181.2,95.6c1.3,0,2.3-1,2.3-2.3s-1-2.3-2.3-2.3c-1.3,0-2.3,1-2.3,2.3S180,95.6,181.2,95.6z M181.2,92
		c0.7,0,1.3,0.6,1.3,1.3s-0.6,1.3-1.3,1.3c-0.7,0-1.3-0.6-1.3-1.3S180.5,92,181.2,92z"/>
	<path d="M181.2,103.3c1.3,0,2.3-1,2.3-2.3s-1-2.3-2.3-2.3c-1.3,0-2.3,1-2.3,2.3S180,103.3,181.2,103.3z M181.2,99.7
		c0.7,0,1.3,0.6,1.3,1.3c0,0.7-0.6,1.3-1.3,1.3c-0.7,0-1.3-0.6-1.3-1.3C180,100.3,180.5,99.7,181.2,99.7z"/>
</g>
</svg>
