<?xml version="1.0" encoding="utf-8"?>
<!-- Generator: Adobe Illustrator 19.1.0, SVG Export Plug-In . SVG Version: 6.00 Build 0)  -->
<svg version="1.1" id="Layer_1" xmlns="http://www.w3.org/2000/svg" xmlns:xlink="http://www.w3.org/1999/xlink" x="0px" y="0px"
	 viewBox="0 0 9.6 9.4" style="enable-background:new 0 0 9.6 9.4;" xml:space="preserve">
<style type="text/css">
	.st0{fill:none;stroke:#000000;stroke-linecap:round;stroke-miterlimit:10;}
</style>
<path d="M9.3,8.4c0.2,0.2,0.2,0.5,0,0.7C9.2,9.2,9.1,9.2,9,9.2c-0.1,0-0.3,0-0.3-0.1L4.8,5.4L0.9,9.1C0.8,9.2,0.7,9.2,0.6,9.2
	c-0.1,0-0.3-0.1-0.4-0.2C0,8.9,0,8.6,0.2,8.4l3.8-3.7L0.2,1C0,0.8,0,0.5,0.2,0.3c0.2-0.2,0.5-0.2,0.7,0L4.8,4l3.8-3.7
	c0.2-0.2,0.5-0.2,0.7,0c0.2,0.2,0.2,0.5,0,0.7L5.5,4.7L9.3,8.4z"/>
</svg>
