<?xml version="1.0" encoding="utf-8"?>
<!-- Generator: Adobe Illustrator 19.1.0, SVG Export Plug-In . SVG Version: 6.00 Build 0)  -->
<svg version="1.1" id="Layer_1" xmlns="http://www.w3.org/2000/svg" xmlns:xlink="http://www.w3.org/1999/xlink" x="0px" y="0px"
	 viewBox="0 0 53.1 53.1" style="enable-background:new 0 0 53.1 53.1;" xml:space="preserve">
<style type="text/css">
	.st0{fill:none;stroke:#000000;stroke-width:2.5;stroke-miterlimit:10;}
	.st1{fill:none;stroke:#000000;stroke-width:3;stroke-linecap:round;stroke-miterlimit:10;}
	.st2{fill:none;stroke:#000000;stroke-width:2.5;stroke-linecap:round;stroke-miterlimit:10;}
	.st3{fill:none;}
	.st4{fill:none;stroke:#FFFFFF;stroke-width:2.5;stroke-miterlimit:10;}
	.st5{fill:#FFFFFF;stroke:#000000;stroke-miterlimit:10;}
	.st6{fill:none;stroke:#000000;stroke-width:3;stroke-miterlimit:10;}
	.st7{stroke:#000000;stroke-width:2.5;stroke-miterlimit:10;}
	.st8{fill:none;stroke:#000000;stroke-linecap:round;stroke-linejoin:round;stroke-miterlimit:10;}
</style>
<path d="M52.4,14.1c0-5.2-4.3-9.5-9.5-9.5c-4.8,0-8.9,3.7-9.4,8.3c-0.3-0.1-0.6-0.1-1-0.2c-1.4-2-3.5-3.5-5.8-4.3
	c-0.5-4.5-4.1-7.8-8.6-7.8c-4.7,0-8.6,3.7-8.6,8.4c0,2.3,0.9,4.5,2.6,6.1c-0.5,1.3-0.8,2.8-0.8,4.3c0,0.7,0.1,1.4,0.2,2.1
	C5.9,22.3,0.7,27.5,0.7,33.7c0,6.7,5.7,12.2,12.4,12.2c3.9,0,7.6-1.9,9.9-5.1c0.1,0.1,0.2,0.1,0.3,0.2c-0.6,1.1-1,2.4-1,3.8
	c0,4.3,3.5,7.7,7.7,7.7c4.3,0,7.7-3.5,7.7-7.7c0-0.8-0.1-1.5-0.3-2.2c0.4-0.2,0.8-0.3,1.2-0.5c0.9,1.9,2.8,3.2,5,3.2
	c3.1,0,5.6-2.4,5.6-5.5c0-2.3-1.5-4.3-3.5-5.1c0.9-2,1.4-4.1,1.4-6.4c0-1.8-0.3-3.6-1-5.3C49.7,21.7,52.4,18.2,52.4,14.1z M12,9.2
	c0-3.4,2.7-6,6.1-6c2.9,0,5.3,1.7,6,4.7c-0.4,0-0.7-0.1-1.1-0.1c-4,0-7.5,2-9.6,5.1C12.5,11.9,12,10.6,12,9.2z M12.9,43.4
	c-5.3,0-9.8-4.3-9.8-9.7c0-5.2,4.2-9.4,9-9.6c0.9,2.1,2.3,3.8,4.2,5.1c0.5,3.9,2.1,7.4,4.5,9.9C19.2,41.8,16.2,43.4,12.9,43.4z
	 M29.9,50c-2.9,0-5.2-2.3-5.2-5.2s2.3-5.2,5.2-5.2s5.2,2.3,5.2,5.2S32.8,50,29.9,50z M46.6,39.7c0,1.7-1.4,3-3.1,3
	c-1.3,0-2.4-0.7-2.9-2c1.5-1.1,2.7-2.4,3.8-3.9C45.9,37.1,46.6,38.3,46.6,39.7z M44.5,28.3c0,5.4-3.4,10.2-8.3,12
	c-1.4-2-3.7-3.2-6.3-3.2c-2,0-3.8,0.8-5.2,2c-3.4-2.3-5.7-6.5-5.9-11.3l0,0c-3.1-1.6-5.1-4.7-5.1-8.2c0-5.1,4.1-9.2,9.2-9.2
	c3.1,0,6,1.6,7.7,4.2v0.6c1.6,0,2.2,0.1,2.9,0.3c0.7,4.6,4.6,8.1,9.4,8.1c0.2,0,0.4,0,0.7,0C44.2,25.1,44.5,26.6,44.5,28.3z
	 M42.9,21.1c-3.9,0-7-3.1-7-7s3.1-7,7-7c3.9,0,7,3.1,7,7S46.7,21.1,42.9,21.1z"/>
</svg>
