<?xml version="1.0" encoding="utf-8"?>
<!-- Generator: Adobe Illustrator 19.1.0, SVG Export Plug-In . SVG Version: 6.00 Build 0)  -->
<svg version="1.1" id="Layer_1" xmlns="http://www.w3.org/2000/svg" xmlns:xlink="http://www.w3.org/1999/xlink" x="0px" y="0px"
	 viewBox="-11 8 32 32" style="enable-background:new -11 8 32 32;" xml:space="preserve">
<style type="text/css">
	.st0{fill:#231F20;}
</style>
<g>
	<path class="st0" d="M4.9,8.2c-8.7,0-15.8,7.1-15.8,15.9c0,8.7,7.1,15.8,15.8,15.8s15.8-7.1,15.8-15.8C20.8,15.3,13.7,8.2,4.9,8.2z
		 M4.9,37.9c-7.6,0-13.8-6.2-13.8-13.8s6.2-13.8,13.8-13.8s13.8,6.2,13.8,13.8C18.8,31.7,12.6,37.9,4.9,37.9z"/>
	<path class="st0" d="M12.2,23H6v-6.2c0-0.6-0.4-1-1-1s-1,0.4-1,1V23h-6.2c-0.6,0-1,0.4-1,1s0.4,1,1,1H4v6.3c0,0.6,0.4,1,1,1
		s1-0.4,1-1V25h6.2c0.6,0,1-0.4,1-1S12.8,23,12.2,23z"/>
</g>
</svg>
